<svg xmlns="http://www.w3.org/2000/svg" height="30" viewBox="0 -960 960 960" width="24"><path d="M190-99q-38.425 0-64.713-26.287Q99-151.575 99-190v-580q0-38.838 26.287-65.419Q151.575-862 190-862h502l170 170v224L494-99H190Zm54-478h354v-139H244v139Zm235.765 321Q522-256 552-285.765q30-29.764 30-72Q582-400 552.235-430q-29.764-30-72-30Q438-460 408-430.235q-30 29.764-30 72Q378-316 407.765-286q29.764 30 72 30ZM570-20v-72l238-237 71 70L642-20h-72Zm337-265-70-72 37-38q10.631-10 21.609-10 10.977 0 21.391 10l26 26q10 10.429 10 24t-10 24l-36 36Z"/></svg>